<svg width="117" height="53" viewBox="0 0 117 53" fill="none" xmlns="http://www.w3.org/2000/svg">
<g id="logo-center">
<g id="title">
<g id="path130245">
<path id="Vector" d="M48.4012 28.4051C46.2145 34.9968 42.8612 37.414 40.237 37.3405C37.467 37.2675 37.8318 33.7517 38.6335 30.6758L39.9454 25.5488C40.6744 25.4753 41.9136 25.2558 42.7881 24.9628C44.8295 24.2302 46.8704 22.9121 47.9638 21.4474L44.7563 18.4441C44.1731 18.9572 43.2255 19.9823 41.2577 20.6414L46.433 1.08595H41.1846C35.1344 4.23525 29.5949 11.3399 25.0024 20.0558C23.6905 20.0558 22.4513 20.1288 21.0663 20.4218C18.369 21.0809 15.7452 22.7656 14.7245 24.0837L17.932 27.087C18.7337 26.2809 19.9729 25.3288 21.5038 24.8898C21.8681 24.8163 22.3055 24.7433 22.743 24.6698C19.6813 30.8954 16.0364 37.3405 10.2052 37.3405C6.92508 37.3405 4.66515 35.2898 3.64493 33.6051L7.62939e-06 36.4619C1.45817 39.1717 5.54006 42.1014 10.4237 42.1014C19.6813 42.1014 23.6174 34.2647 28.2825 25.0363C28.72 25.1093 29.1574 25.1823 29.6675 25.2558C31.1252 25.4753 32.8018 25.7684 34.6243 25.8419L33.4578 30.2363C31.7816 36.5349 33.0208 42.1014 39.7996 42.1014C45.3396 42.1014 50.2232 37.414 52.6289 29.4307L48.4012 28.4051ZM30.5424 20.7149C33.3124 15.5879 36.2278 11.1199 39.3621 8.41016L35.8635 21.2274C34.041 21.1544 32.219 21.0079 30.5424 20.7149Z" fill="white"/>
<path id="Vector_2" opacity="0.65" d="M31.4297 19.1082C33.9341 14.6613 36.5604 10.8323 39.3621 8.41012L41.1846 1.0859C35.3554 4.1202 30.0006 10.827 25.5097 19.1082H31.4297Z" fill="white"/>
<path id="Vector_3" opacity="0.65" d="M38.6652 10.9634L35.9503 20.9096L35.8634 21.2274C38.1808 21.3395 39.8884 21.1142 41.2576 20.6414C41.3302 20.3587 41.3798 20.1807 41.3809 20.1761L43.819 10.9634H38.6652Z" fill="white"/>
<path id="Vector_4" opacity="0.65" d="M40.2371 37.3405C37.4671 37.2675 37.8318 33.7516 38.6336 30.6758L39.8024 26.1082L39.9455 25.5488C38.15 25.8506 36.3759 25.9437 34.6242 25.842L34.5331 26.186L33.4578 30.2363C32.2533 34.7629 32.5544 38.9114 35.3353 40.8873L40.2371 37.3405Z" fill="white"/>
<path id="Vector_5" opacity="0.65" d="M21.5038 24.8897C21.9222 24.8053 22.3619 24.734 22.7427 24.6698C23.0735 23.9959 24.6076 20.8703 25.0086 20.0565C23.745 20.0565 22.496 20.1193 21.0664 20.4218C18.369 21.0809 15.7453 22.7655 14.7246 24.0837L17.9321 27.087C18.7338 26.2809 19.973 25.3288 21.5038 24.8897Z" fill="white"/>
<path id="Vector_6" opacity="0.65" d="M44.7563 18.4441C44.289 18.8944 43.7818 19.322 43.234 19.6895C42.6998 20.048 42.0119 20.389 41.2575 20.6414C39.8373 21.135 38.099 21.3356 35.8634 21.2274C33.8191 21.1455 32.0037 20.9747 30.5424 20.7148C30.1258 21.5094 28.6532 24.3316 28.285 25.0367C28.7288 25.1111 29.1845 25.1862 29.6675 25.2557C31.1252 25.4753 32.8016 25.7685 34.6241 25.842C36.3762 25.9437 38.1495 25.8506 39.9453 25.5488C40.4029 25.4995 40.8388 25.4313 41.2382 25.3525C41.7343 25.2546 42.1787 25.1496 42.5383 25.0416C42.8247 24.9556 43.056 24.8647 43.2268 24.7959C45.0936 24.0541 46.9673 22.7985 47.9638 21.4474C47.7376 21.2356 47.3339 20.8576 44.7563 18.4441Z" fill="white"/>
</g>
<g id="path130247">
<path id="Vector_7" d="M52.3527 36.0209C52.6443 30.7474 56.7993 27.232 58.3297 23.6432L54.1025 22.2515C54.0293 23.7897 53.0813 27.7446 52.3527 29.8683L48.1245 28.7697C48.9272 26.939 49.8743 22.3245 49.8743 20.7134C48.9272 19.9078 48.3439 17.6371 49.9474 16.3919C51.2593 15.3668 53.3007 15.8794 54.2478 17.344C55.5596 17.9301 58.4028 18.7357 61.246 19.6878C62.7763 20.2008 64.016 20.5669 64.453 21.6655C64.8899 22.7641 63.7966 24.3752 61.4645 27.7446C59.7878 30.1613 57.091 33.7502 57.1641 35.9474C57.1641 36.973 57.8196 37.559 58.6945 37.559C60.5164 37.559 63.8697 35.2153 66.2028 28.4036L70.5031 29.4292C67.5878 37.7785 63.5049 42.1 58.4028 42.1C54.9042 42.1 52.1342 39.4632 52.3527 36.0209Z" fill="white"/>
<path id="Vector_8" opacity="0.65" d="M54.1025 22.2515C54.0293 23.7897 53.0813 27.7445 52.3527 29.8683L48.1245 28.7696C48.9272 26.939 49.8743 22.3245 49.8743 20.7133C50.6156 21.353 52.7638 21.7661 54.1025 22.2515Z" fill="white"/>
<path id="Vector_9" opacity="0.65" d="M52.3527 36.0209C52.6444 30.7473 56.7994 27.232 58.3297 23.6431C60.4143 24.2971 62.6959 25.3229 62.8119 25.7761C62.4238 26.3571 61.9737 27.0089 61.4645 27.7446C59.7879 30.1613 57.091 33.7501 57.1642 35.9474L52.3527 36.0209Z" fill="white"/>
</g>
<g id="path130249">
<path id="Vector_10" d="M84.6497 29.4293L80.3483 28.4037C79.4013 31.2599 77.6515 33.3106 75.2462 34.9953C72.3309 29.6488 68.9045 26.353 69.7062 23.8627C70.1441 22.3246 71.6745 21.7385 72.9142 22.1781C74.0075 22.5446 74.3713 23.7897 74.3713 24.1557L78.0163 22.7641C77.9431 21.9585 77.5793 20.7864 76.9229 19.8343C75.8295 18.2962 74.0075 17.4906 72.0393 17.4906C68.4675 17.4906 66.0613 19.6148 65.2595 22.6911C63.8024 28.4037 68.8313 32.7251 71.3097 37.266C70.1441 37.8521 68.8313 38.4377 67.5194 39.0237C61.1055 41.88 59.6473 45.0298 60.2306 47.8126C60.8138 50.4493 63.3644 52.5 66.864 52.5C72.9141 52.5 78.4532 46.641 76.9229 39.3167C79.8382 37.266 82.8999 34.7758 84.6497 29.4293ZM67.5926 47.9591C66.1344 48.2521 65.0411 47.8861 64.8957 47.0805C64.7494 46.4209 65.041 45.3223 67.8842 43.8577C69.4877 43.0521 71.0181 42.393 72.5494 41.7334C72.4762 45.5423 69.1229 47.666 67.5926 47.9591Z" fill="white"/>
<path id="Vector_11" opacity="0.65" d="M75.2462 34.9953C72.3309 29.6487 68.9044 26.3529 69.7062 23.8627L65.2595 22.6911C63.8023 28.4036 68.8313 32.7251 71.3097 37.266C72.6646 36.6208 74.6354 35.4822 75.2462 34.9953Z" fill="white"/>
<path id="Vector_12" opacity="0.65" d="M72.5493 41.7335C72.4762 45.5423 69.1229 47.666 67.5925 47.9591L66.864 52.5C72.9141 52.5 78.4532 46.6409 76.9228 39.3167C75.9656 40.0763 73.847 41.1951 72.5493 41.7335Z" fill="white"/>
</g>
<g id="path130251">
<path id="Vector_13" d="M102.967 28.4053C100.78 34.9969 98.3747 37.9997 96.7702 37.6337C95.6047 37.3407 95.75 35.8025 96.4796 33.3858L98.2284 27.3802C99.1764 24.0839 99.1764 22.0332 98.0831 20.056C97.135 18.3713 95.2399 17.4922 93.5632 17.4922C91.3765 17.4922 89.3361 18.4443 87.4399 20.056V19.9825C88.1695 17.2727 89.0444 14.5624 90.1378 12.1457C92.0329 13.0248 94.2918 13.9769 97.4998 13.9769C102.457 13.9769 106.101 11.1201 106.028 6.94567C105.955 3.06378 102.457 0.500046 98.0099 0.500046C93.928 0.500046 90.7201 2.77077 88.1695 6.35962C85.2532 5.40752 82.1925 5.26101 79.2762 6.2131L80.588 10.3145C82.6295 9.87497 84.0876 10.0215 85.7643 10.461C84.6709 12.7317 83.796 15.295 83.0664 18.0783L76.7256 41.5156H81.6092L83.7228 33.6053C84.4514 31.3351 85.2532 29.6504 86.0559 28.0392C88.1695 23.7913 91.6681 21.1546 93.3448 21.9601C94.2918 22.3997 94.2918 23.9373 93.4901 26.7941L92.0329 31.5546C91.158 34.4114 90.9395 36.6816 91.6681 38.8788C92.3246 40.71 93.7817 42.1016 96.1148 42.1016C100.925 42.1016 104.789 36.6816 107.267 29.4309L102.967 28.4053ZM98.3747 4.89498C100.27 4.89498 101.582 5.92008 101.582 7.0922C101.582 8.41034 100.342 9.72896 97.573 9.72896C95.8231 9.72896 94.1465 9.0694 92.4699 8.26382C94.0734 6.21311 95.9685 4.89498 98.3747 4.89498Z" fill="white"/>
<path id="Vector_14" opacity="0.65" d="M98.2284 27.3802C99.1765 24.0838 99.1765 22.0331 98.0831 20.0559C97.1351 18.3713 95.24 17.4922 93.5633 17.4922C91.3765 17.4922 89.3361 18.4443 87.44 20.0559L83.7229 33.6053C84.4515 31.3351 85.2532 29.6504 86.056 28.0392C88.1696 23.7913 91.6682 21.1546 93.3448 21.9601C94.2919 22.3997 94.2919 23.9373 93.4901 26.7941L98.2284 27.3802Z" fill="white"/>
<path id="Vector_15" opacity="0.65" d="M98.01 0.500031C93.9281 0.500031 90.7202 2.77074 88.1696 6.35959C89.9579 6.94108 91.1811 7.65418 92.47 8.26378C94.0734 6.21308 95.9686 4.89496 98.3748 4.89496L98.01 0.500031Z" fill="white"/>
<path id="Vector_16" opacity="0.65" d="M85.7643 10.461C84.6709 12.7317 83.796 15.295 83.0664 18.0783L81.0453 25.5488L85.7106 26.3596L87.4399 20.056V19.9825C88.1695 17.2727 89.0444 14.5624 90.1378 12.1457C88.7251 11.4829 87.1938 10.8072 85.7643 10.461Z" fill="white"/>
</g>
<g id="path130253">
<path id="Vector_17" d="M101.838 39.2437C101.183 37.779 100.964 35.2888 101.911 31.8465L105.629 18.0771H110.513L106.431 33.3846C105.848 35.5088 105.556 37.2665 106.503 37.6325C107.816 38.1451 110.513 34.9958 112.7 28.4041L117 29.4297C114.522 36.6804 111.388 42.1005 106.139 42.1005C104.026 42.1005 102.421 40.5623 101.838 39.2437ZM109.42 9.28824C111.096 9.28824 112.116 10.4599 112.116 11.998C112.116 13.5361 110.95 14.7813 109.42 14.7813C107.888 14.7813 106.65 13.5362 106.65 11.998C106.65 10.4598 107.888 9.28824 109.42 9.28824Z" fill="white"/>
</g>
</g>
</g>
</svg>
